<svg xmlns="http://www.w3.org/2000/svg" xmlns:xlink="http://www.w3.org/1999/xlink" width="500" zoomAndPan="magnify" viewBox="0 0 375 149.999998" height="200" preserveAspectRatio="xMidYMid meet" version="1.0"><defs><g/></defs><g fill="#94836e" fill-opacity="1"><g transform="translate(6.418615, 103.83672)"><g><path d="M 38 -45.4375 C 37.695312 -42.40625 37.546875 -39.671875 37.546875 -37.234375 C 37.546875 -35.085938 37.613281 -33.332031 37.75 -31.96875 L 36.265625 -31.96875 C 35.921875 -35.257812 35.492188 -37.707031 34.984375 -39.3125 C 34.472656 -40.914062 33.570312 -42.09375 32.28125 -42.84375 C 31 -43.59375 29.03125 -43.96875 26.375 -43.96875 L 22.921875 -43.96875 L 22.921875 -7.453125 C 22.921875 -5.648438 23.085938 -4.34375 23.421875 -3.53125 C 23.765625 -2.71875 24.363281 -2.160156 25.21875 -1.859375 C 26.082031 -1.554688 27.472656 -1.363281 29.390625 -1.28125 L 29.390625 0 C 27.171875 -0.125 24.03125 -0.1875 19.96875 -0.1875 C 15.6875 -0.1875 12.519531 -0.125 10.46875 0 L 10.46875 -1.28125 C 12.382812 -1.363281 13.769531 -1.554688 14.625 -1.859375 C 15.488281 -2.160156 16.09375 -2.71875 16.4375 -3.53125 C 16.78125 -4.34375 16.953125 -5.648438 16.953125 -7.453125 L 16.953125 -43.96875 L 13.484375 -43.96875 C 10.828125 -43.96875 8.859375 -43.59375 7.578125 -42.84375 C 6.296875 -42.09375 5.394531 -40.914062 4.875 -39.3125 C 4.363281 -37.707031 3.9375 -35.257812 3.59375 -31.96875 L 2.125 -31.96875 C 2.25 -33.332031 2.3125 -35.085938 2.3125 -37.234375 C 2.3125 -39.671875 2.160156 -42.40625 1.859375 -45.4375 C 5.410156 -45.3125 11.445312 -45.25 19.96875 -45.25 C 28.4375 -45.25 34.445312 -45.3125 38 -45.4375 Z M 38 -45.4375 "/></g></g></g><g fill="#94836e" fill-opacity="1"><g transform="translate(59.115385, 103.83672)"><g><path d="M 45.890625 -44.15625 C 44.347656 -44.070312 43.222656 -43.898438 42.515625 -43.640625 C 41.816406 -43.390625 41.335938 -42.898438 41.078125 -42.171875 C 40.816406 -41.441406 40.6875 -40.265625 40.6875 -38.640625 L 40.6875 -6.796875 C 40.6875 -5.171875 40.816406 -3.992188 41.078125 -3.265625 C 41.335938 -2.546875 41.816406 -2.054688 42.515625 -1.796875 C 43.222656 -1.535156 44.347656 -1.363281 45.890625 -1.28125 L 45.890625 0 C 44.097656 -0.125 41.359375 -0.1875 37.671875 -0.1875 C 34.210938 -0.1875 31.5 -0.125 29.53125 0 L 29.53125 -1.28125 C 31.070312 -1.363281 32.191406 -1.535156 32.890625 -1.796875 C 33.597656 -2.054688 34.078125 -2.546875 34.328125 -3.265625 C 34.585938 -3.992188 34.71875 -5.171875 34.71875 -6.796875 L 34.71875 -22.203125 L 13.859375 -22.203125 L 13.859375 -6.796875 C 13.859375 -5.171875 13.988281 -3.992188 14.25 -3.265625 C 14.507812 -2.546875 14.988281 -2.054688 15.6875 -1.796875 C 16.394531 -1.535156 17.519531 -1.363281 19.0625 -1.28125 L 19.0625 0 C 17.09375 -0.125 14.375 -0.1875 10.90625 -0.1875 C 7.226562 -0.1875 4.492188 -0.125 2.703125 0 L 2.703125 -1.28125 C 4.234375 -1.363281 5.351562 -1.535156 6.0625 -1.796875 C 6.769531 -2.054688 7.25 -2.546875 7.5 -3.265625 C 7.757812 -3.992188 7.890625 -5.171875 7.890625 -6.796875 L 7.890625 -38.640625 C 7.890625 -40.265625 7.757812 -41.441406 7.5 -42.171875 C 7.25 -42.898438 6.769531 -43.390625 6.0625 -43.640625 C 5.351562 -43.898438 4.234375 -44.070312 2.703125 -44.15625 L 2.703125 -45.4375 C 4.492188 -45.3125 7.226562 -45.25 10.90625 -45.25 C 14.332031 -45.25 17.050781 -45.3125 19.0625 -45.4375 L 19.0625 -44.15625 C 17.519531 -44.070312 16.394531 -43.898438 15.6875 -43.640625 C 14.988281 -43.390625 14.507812 -42.898438 14.25 -42.171875 C 13.988281 -41.441406 13.859375 -40.265625 13.859375 -38.640625 L 13.859375 -23.5 L 34.71875 -23.5 L 34.71875 -38.640625 C 34.71875 -40.265625 34.585938 -41.441406 34.328125 -42.171875 C 34.078125 -42.898438 33.597656 -43.390625 32.890625 -43.640625 C 32.191406 -43.898438 31.070312 -44.070312 29.53125 -44.15625 L 29.53125 -45.4375 C 31.5 -45.3125 34.210938 -45.25 37.671875 -45.25 C 41.359375 -45.25 44.097656 -45.3125 45.890625 -45.4375 Z M 45.890625 -44.15625 "/></g></g></g><g fill="#94836e" fill-opacity="1"><g transform="translate(120.541476, 103.83672)"><g><path d="M 35.5625 -8.21875 C 35.5625 -5.78125 35.710938 -3.039062 36.015625 0 C 33.097656 -0.125 28.195312 -0.1875 21.3125 -0.1875 C 13.09375 -0.1875 6.890625 -0.125 2.703125 0 L 2.703125 -1.28125 C 4.234375 -1.363281 5.351562 -1.535156 6.0625 -1.796875 C 6.769531 -2.054688 7.25 -2.546875 7.5 -3.265625 C 7.757812 -3.992188 7.890625 -5.171875 7.890625 -6.796875 L 7.890625 -38.640625 C 7.890625 -40.265625 7.757812 -41.441406 7.5 -42.171875 C 7.25 -42.898438 6.769531 -43.390625 6.0625 -43.640625 C 5.351562 -43.898438 4.234375 -44.070312 2.703125 -44.15625 L 2.703125 -45.4375 C 6.890625 -45.3125 13.09375 -45.25 21.3125 -45.25 C 27.601562 -45.25 32.070312 -45.3125 34.71875 -45.4375 C 34.425781 -42.613281 34.28125 -40.09375 34.28125 -37.875 C 34.28125 -36.207031 34.34375 -34.878906 34.46875 -33.890625 L 33 -33.890625 C 32.695312 -36.671875 32.304688 -38.734375 31.828125 -40.078125 C 31.359375 -41.429688 30.566406 -42.414062 29.453125 -43.03125 C 28.347656 -43.65625 26.660156 -43.96875 24.390625 -43.96875 L 19.0625 -43.96875 C 17.519531 -43.96875 16.394531 -43.847656 15.6875 -43.609375 C 14.988281 -43.378906 14.507812 -42.898438 14.25 -42.171875 C 13.988281 -41.441406 13.859375 -40.265625 13.859375 -38.640625 L 13.859375 -23.5 L 18.09375 -23.5 C 19.59375 -23.5 20.75 -23.847656 21.5625 -24.546875 C 22.375 -25.253906 22.921875 -26.085938 23.203125 -27.046875 C 23.484375 -28.015625 23.707031 -29.226562 23.875 -30.6875 L 24.078125 -31.96875 L 25.546875 -31.96875 C 25.421875 -30.164062 25.359375 -28.15625 25.359375 -25.9375 L 25.359375 -22.84375 C 25.359375 -20.664062 25.484375 -17.628906 25.734375 -13.734375 L 24.265625 -13.734375 C 24.222656 -14.035156 24.09375 -15.070312 23.875 -16.84375 C 23.664062 -18.625 23.078125 -19.960938 22.109375 -20.859375 C 21.148438 -21.753906 19.8125 -22.203125 18.09375 -22.203125 L 13.859375 -22.203125 L 13.859375 -6.796875 C 13.859375 -5.171875 13.988281 -3.992188 14.25 -3.265625 C 14.507812 -2.546875 14.988281 -2.066406 15.6875 -1.828125 C 16.394531 -1.585938 17.519531 -1.46875 19.0625 -1.46875 L 23.75 -1.46875 C 26.40625 -1.46875 28.425781 -1.820312 29.8125 -2.53125 C 31.207031 -3.238281 32.222656 -4.375 32.859375 -5.9375 C 33.503906 -7.5 33.976562 -9.800781 34.28125 -12.84375 L 35.75 -12.84375 C 35.625 -11.6875 35.5625 -10.144531 35.5625 -8.21875 Z M 35.5625 -8.21875 "/></g></g></g><g fill="#94836e" fill-opacity="1"><g transform="translate(172.468024, 103.83672)"><g><path d="M 42.359375 -3.203125 C 41.378906 -1.753906 40.394531 -0.707031 39.40625 -0.0625 C 38.425781 0.582031 37.125 0.90625 35.5 0.90625 C 33.738281 0.90625 32.289062 0.390625 31.15625 -0.640625 C 30.03125 -1.671875 29.1875 -3.46875 28.625 -6.03125 L 27.21875 -12.453125 C 26.695312 -14.679688 26.210938 -16.394531 25.765625 -17.59375 C 25.316406 -18.789062 24.644531 -19.75 23.75 -20.46875 C 22.851562 -21.195312 21.59375 -21.5625 19.96875 -21.5625 L 13.859375 -21.5625 L 13.859375 -6.796875 C 13.859375 -5.171875 13.988281 -3.992188 14.25 -3.265625 C 14.507812 -2.546875 14.988281 -2.054688 15.6875 -1.796875 C 16.394531 -1.535156 17.519531 -1.363281 19.0625 -1.28125 L 19.0625 0 C 17.09375 -0.125 14.375 -0.1875 10.90625 -0.1875 C 7.226562 -0.1875 4.492188 -0.125 2.703125 0 L 2.703125 -1.28125 C 4.234375 -1.363281 5.351562 -1.535156 6.0625 -1.796875 C 6.769531 -2.054688 7.25 -2.546875 7.5 -3.265625 C 7.757812 -3.992188 7.890625 -5.171875 7.890625 -6.796875 L 7.890625 -38.640625 C 7.890625 -40.265625 7.757812 -41.441406 7.5 -42.171875 C 7.25 -42.898438 6.769531 -43.390625 6.0625 -43.640625 C 5.351562 -43.898438 4.234375 -44.070312 2.703125 -44.15625 L 2.703125 -45.4375 C 4.492188 -45.3125 7.101562 -45.25 10.53125 -45.25 L 17.453125 -45.3125 C 18.265625 -45.351562 19.1875 -45.375 20.21875 -45.375 C 25.1875 -45.375 29.003906 -44.335938 31.671875 -42.265625 C 34.347656 -40.191406 35.6875 -37.507812 35.6875 -34.21875 C 35.6875 -32.539062 35.289062 -30.859375 34.5 -29.171875 C 33.707031 -27.484375 32.378906 -25.960938 30.515625 -24.609375 C 28.660156 -23.265625 26.234375 -22.359375 23.234375 -21.890625 L 24 -21.765625 C 26.832031 -21.285156 28.890625 -20.425781 30.171875 -19.1875 C 31.453125 -17.945312 32.394531 -15.976562 33 -13.28125 L 34.59375 -6.734375 C 35.019531 -4.765625 35.46875 -3.394531 35.9375 -2.625 C 36.414062 -1.851562 37.0625 -1.46875 37.875 -1.46875 C 38.601562 -1.46875 39.210938 -1.660156 39.703125 -2.046875 C 40.191406 -2.429688 40.757812 -3.054688 41.40625 -3.921875 Z M 18.609375 -44.15625 C 17.285156 -44.15625 16.289062 -44.003906 15.625 -43.703125 C 14.96875 -43.410156 14.507812 -42.878906 14.25 -42.109375 C 13.988281 -41.335938 13.859375 -40.179688 13.859375 -38.640625 L 13.859375 -22.84375 L 18.171875 -22.84375 C 22.398438 -22.84375 25.304688 -23.785156 26.890625 -25.671875 C 28.472656 -27.554688 29.265625 -30.164062 29.265625 -33.5 C 29.265625 -37.007812 28.429688 -39.660156 26.765625 -41.453125 C 25.097656 -43.253906 22.378906 -44.15625 18.609375 -44.15625 Z M 18.609375 -44.15625 "/></g></g></g><g fill="#94836e" fill-opacity="1"><g transform="translate(226.897832, 103.83672)"><g><path d="M 36.390625 -5.390625 C 37.421875 -2.734375 38.898438 -1.363281 40.828125 -1.28125 L 40.828125 0 C 39.109375 -0.125 36.816406 -0.1875 33.953125 -0.1875 C 30.273438 -0.1875 27.535156 -0.125 25.734375 0 L 25.734375 -1.28125 C 27.359375 -1.363281 28.523438 -1.566406 29.234375 -1.890625 C 29.941406 -2.210938 30.296875 -2.800781 30.296875 -3.65625 C 30.296875 -4.382812 30.039062 -5.390625 29.53125 -6.671875 L 25.609375 -17.203125 L 10.078125 -17.203125 L 7.453125 -10.390625 C 6.585938 -8.085938 6.15625 -6.335938 6.15625 -5.140625 C 6.15625 -3.804688 6.613281 -2.835938 7.53125 -2.234375 C 8.457031 -1.640625 9.863281 -1.320312 11.75 -1.28125 L 11.75 0 C 9.3125 -0.125 6.847656 -0.1875 4.359375 -0.1875 C 2.429688 -0.1875 0.828125 -0.125 -0.453125 0 L -0.453125 -1.28125 C 1.691406 -1.789062 3.382812 -3.65625 4.625 -6.875 L 19.703125 -45.765625 L 20.734375 -45.765625 Z M 25.09375 -18.484375 L 17.90625 -37.671875 L 10.59375 -18.484375 Z M 25.09375 -18.484375 "/></g></g></g><g fill="#94836e" fill-opacity="1"><g transform="translate(280.172286, 103.83672)"><g><path d="M 13.859375 -18.359375 L 13.859375 -6.796875 C 13.859375 -5.171875 14.03125 -3.992188 14.375 -3.265625 C 14.71875 -2.546875 15.316406 -2.054688 16.171875 -1.796875 C 17.023438 -1.535156 18.414062 -1.363281 20.34375 -1.28125 L 20.34375 0 C 18.125 -0.125 14.976562 -0.1875 10.90625 -0.1875 C 7.226562 -0.1875 4.492188 -0.125 2.703125 0 L 2.703125 -1.28125 C 4.234375 -1.363281 5.351562 -1.535156 6.0625 -1.796875 C 6.769531 -2.054688 7.25 -2.546875 7.5 -3.265625 C 7.757812 -3.992188 7.890625 -5.171875 7.890625 -6.796875 L 7.890625 -38.640625 C 7.890625 -40.265625 7.757812 -41.441406 7.5 -42.171875 C 7.25 -42.898438 6.769531 -43.390625 6.0625 -43.640625 C 5.351562 -43.898438 4.234375 -44.070312 2.703125 -44.15625 L 2.703125 -45.4375 C 4.492188 -45.3125 7.101562 -45.25 10.53125 -45.25 L 17.453125 -45.3125 C 18.265625 -45.351562 19.1875 -45.375 20.21875 -45.375 C 25.226562 -45.375 29.054688 -44.226562 31.703125 -41.9375 C 34.359375 -39.65625 35.6875 -36.585938 35.6875 -32.734375 C 35.6875 -30.378906 35.160156 -28.117188 34.109375 -25.953125 C 33.066406 -23.796875 31.289062 -21.988281 28.78125 -20.53125 C 26.28125 -19.082031 22.957031 -18.359375 18.8125 -18.359375 Z M 18.609375 -44.15625 C 17.285156 -44.15625 16.289062 -44.003906 15.625 -43.703125 C 14.96875 -43.410156 14.507812 -42.878906 14.25 -42.109375 C 13.988281 -41.335938 13.859375 -40.179688 13.859375 -38.640625 L 13.859375 -19.640625 L 18.171875 -19.640625 C 22.359375 -19.640625 25.253906 -20.757812 26.859375 -23 C 28.460938 -25.25 29.265625 -28.257812 29.265625 -32.03125 C 29.265625 -36.175781 28.441406 -39.234375 26.796875 -41.203125 C 25.148438 -43.171875 22.421875 -44.15625 18.609375 -44.15625 Z M 18.609375 -44.15625 "/></g></g></g><g fill="#94836e" fill-opacity="1"><g transform="translate(330.558375, 103.83672)"><g><path d="M 32.921875 -45.25 C 34.847656 -45.25 36.457031 -45.3125 37.75 -45.4375 L 37.75 -44.15625 C 36.882812 -43.945312 36.046875 -43.398438 35.234375 -42.515625 C 34.421875 -41.640625 33.546875 -40.285156 32.609375 -38.453125 L 22.53125 -18.484375 L 22.53125 -6.796875 C 22.53125 -5.171875 22.65625 -3.992188 22.90625 -3.265625 C 23.164062 -2.546875 23.648438 -2.054688 24.359375 -1.796875 C 25.066406 -1.535156 26.191406 -1.363281 27.734375 -1.28125 L 27.734375 0 C 25.765625 -0.125 23.046875 -0.1875 19.578125 -0.1875 C 15.898438 -0.1875 13.160156 -0.125 11.359375 0 L 11.359375 -1.28125 C 12.898438 -1.363281 14.023438 -1.535156 14.734375 -1.796875 C 15.441406 -2.054688 15.921875 -2.546875 16.171875 -3.265625 C 16.429688 -3.992188 16.5625 -5.171875 16.5625 -6.796875 L 16.5625 -16.4375 L 3.53125 -40.5 C 2.757812 -41.914062 2.082031 -42.867188 1.5 -43.359375 C 0.925781 -43.847656 0.363281 -44.09375 -0.1875 -44.09375 L -0.1875 -45.4375 C 1.476562 -45.3125 3.359375 -45.25 5.453125 -45.25 C 9.609375 -45.25 12.601562 -45.3125 14.4375 -45.4375 L 14.4375 -44.09375 C 11.445312 -44.09375 9.953125 -43.28125 9.953125 -41.65625 C 9.953125 -41.007812 10.164062 -40.257812 10.59375 -39.40625 L 21.25 -18.9375 L 29.46875 -35.234375 C 30.613281 -37.503906 31.1875 -39.347656 31.1875 -40.765625 C 31.1875 -41.960938 30.71875 -42.816406 29.78125 -43.328125 C 28.84375 -43.835938 27.429688 -44.113281 25.546875 -44.15625 L 25.546875 -45.4375 C 27.984375 -45.3125 30.441406 -45.25 32.921875 -45.25 Z M 32.921875 -45.25 "/></g></g></g><g fill="#94836e" fill-opacity="1"><g transform="translate(119.235645, 142.834844)"><g><path d="M 10.5 -3.1875 C 10.5 -2.300781 10.164062 -1.5625 9.5 -0.96875 C 8.789062 -0.320312 7.695312 0 6.21875 0 L 0.296875 0 L 0.296875 -0.34375 C 1.035156 -0.363281 1.503906 -0.46875 1.703125 -0.65625 C 1.898438 -0.84375 2 -1.265625 2 -1.921875 L 2 -9.796875 C 2 -10.441406 1.898438 -10.851562 1.703125 -11.03125 C 1.515625 -11.21875 1.046875 -11.335938 0.296875 -11.390625 L 0.296875 -11.71875 L 5.25 -11.71875 C 8.34375 -11.71875 9.890625 -10.710938 9.890625 -8.703125 C 9.890625 -7.941406 9.65625 -7.351562 9.1875 -6.9375 C 8.8125 -6.601562 8.238281 -6.34375 7.46875 -6.15625 C 8.050781 -6.019531 8.488281 -5.882812 8.78125 -5.75 C 9.082031 -5.613281 9.363281 -5.425781 9.625 -5.1875 C 10.207031 -4.644531 10.5 -3.976562 10.5 -3.1875 Z M 8.46875 -3.171875 C 8.46875 -4.253906 7.96875 -5.003906 6.96875 -5.421875 C 6.40625 -5.648438 5.351562 -5.765625 3.8125 -5.765625 L 3.8125 -1.375 C 3.8125 -1.09375 3.882812 -0.898438 4.03125 -0.796875 C 4.1875 -0.703125 4.484375 -0.65625 4.921875 -0.65625 C 6.015625 -0.65625 6.832031 -0.804688 7.375 -1.109375 C 8.101562 -1.523438 8.46875 -2.210938 8.46875 -3.171875 Z M 8.09375 -8.640625 C 8.09375 -9.429688 7.828125 -10.03125 7.296875 -10.4375 C 6.765625 -10.851562 5.988281 -11.0625 4.96875 -11.0625 L 4.203125 -11.0625 C 3.941406 -11.0625 3.8125 -10.882812 3.8125 -10.53125 L 3.8125 -6.484375 L 5.484375 -6.484375 C 6.316406 -6.484375 6.957031 -6.664062 7.40625 -7.03125 C 7.863281 -7.40625 8.09375 -7.941406 8.09375 -8.640625 Z M 8.09375 -8.640625 "/></g></g></g><g fill="#94836e" fill-opacity="1"><g transform="translate(134.573345, 142.834844)"><g><path d="M 12.4375 -11.390625 C 11.988281 -11.347656 11.601562 -11.191406 11.28125 -10.921875 C 10.96875 -10.660156 10.539062 -10.140625 10 -9.359375 L 7.375 -5.359375 L 7.375 -1.921875 C 7.375 -1.253906 7.476562 -0.828125 7.6875 -0.640625 C 7.90625 -0.460938 8.410156 -0.363281 9.203125 -0.34375 L 9.203125 0 L 3.78125 0 L 3.78125 -0.34375 C 4.59375 -0.375 5.09375 -0.484375 5.28125 -0.671875 C 5.476562 -0.867188 5.578125 -1.351562 5.578125 -2.125 L 5.578125 -5.203125 L 3.25 -8.609375 C 2.363281 -9.859375 1.769531 -10.628906 1.46875 -10.921875 C 1.175781 -11.210938 0.816406 -11.367188 0.390625 -11.390625 L 0.390625 -11.71875 L 5.34375 -11.71875 L 5.34375 -11.390625 C 5.21875 -11.367188 5.070312 -11.359375 4.90625 -11.359375 C 4.363281 -11.328125 4.09375 -11.160156 4.09375 -10.859375 C 4.09375 -10.628906 4.191406 -10.367188 4.390625 -10.078125 L 7.015625 -6.140625 L 9.546875 -10.140625 C 9.710938 -10.410156 9.796875 -10.628906 9.796875 -10.796875 C 9.796875 -11.015625 9.707031 -11.160156 9.53125 -11.234375 C 9.351562 -11.316406 9.03125 -11.367188 8.5625 -11.390625 L 8.5625 -11.71875 L 12.4375 -11.71875 Z M 12.4375 -11.390625 "/></g></g></g><g fill="#94836e" fill-opacity="1"><g transform="translate(150.883776, 142.834844)"><g/></g></g><g fill="#94836e" fill-opacity="1"><g transform="translate(158.846372, 142.834844)"><g><path d="M 12.5 0 L 7.984375 0 L 7.984375 -0.34375 C 8.460938 -0.34375 8.789062 -0.394531 8.96875 -0.5 C 9.132812 -0.582031 9.21875 -0.722656 9.21875 -0.921875 C 9.21875 -1.203125 9.109375 -1.601562 8.890625 -2.125 L 8.15625 -3.828125 L 3.515625 -3.828125 L 2.703125 -1.75 C 2.609375 -1.5 2.5625 -1.269531 2.5625 -1.0625 C 2.5625 -0.582031 2.960938 -0.34375 3.765625 -0.34375 L 3.765625 0 L 0.265625 0 L 0.265625 -0.34375 C 0.691406 -0.363281 1.019531 -0.53125 1.25 -0.84375 C 1.488281 -1.15625 1.890625 -1.953125 2.453125 -3.234375 L 6.140625 -11.9375 L 6.5 -11.9375 L 10.90625 -1.875 C 11.207031 -1.21875 11.445312 -0.800781 11.625 -0.625 C 11.800781 -0.457031 12.09375 -0.363281 12.5 -0.34375 Z M 7.90625 -4.546875 L 5.859375 -9.421875 L 3.828125 -4.546875 Z M 7.90625 -4.546875 "/></g></g></g><g fill="#94836e" fill-opacity="1"><g transform="translate(175.156804, 142.834844)"><g><path d="M 10.59375 -3.078125 L 9.734375 0 L 0.21875 0 L 0.21875 -0.34375 C 0.863281 -0.382812 1.28125 -0.5 1.46875 -0.6875 C 1.65625 -0.882812 1.75 -1.296875 1.75 -1.921875 L 1.75 -9.796875 C 1.75 -10.421875 1.65625 -10.828125 1.46875 -11.015625 C 1.289062 -11.203125 0.875 -11.328125 0.21875 -11.390625 L 0.21875 -11.71875 L 5.203125 -11.71875 L 5.203125 -11.390625 C 4.503906 -11.335938 4.054688 -11.210938 3.859375 -11.015625 C 3.660156 -10.828125 3.5625 -10.421875 3.5625 -9.796875 L 3.5625 -1.421875 C 3.5625 -1.109375 3.648438 -0.90625 3.828125 -0.8125 C 4.015625 -0.726562 4.429688 -0.6875 5.078125 -0.6875 L 6.265625 -0.6875 C 7.742188 -0.6875 8.78125 -1.046875 9.375 -1.765625 C 9.601562 -2.023438 9.859375 -2.460938 10.140625 -3.078125 Z M 10.59375 -3.078125 "/></g></g></g><g fill="#94836e" fill-opacity="1"><g transform="translate(189.504078, 142.834844)"><g><path d="M 10.59375 -3.078125 L 9.734375 0 L 0.21875 0 L 0.21875 -0.34375 C 0.863281 -0.382812 1.28125 -0.5 1.46875 -0.6875 C 1.65625 -0.882812 1.75 -1.296875 1.75 -1.921875 L 1.75 -9.796875 C 1.75 -10.421875 1.65625 -10.828125 1.46875 -11.015625 C 1.289062 -11.203125 0.875 -11.328125 0.21875 -11.390625 L 0.21875 -11.71875 L 5.203125 -11.71875 L 5.203125 -11.390625 C 4.503906 -11.335938 4.054688 -11.210938 3.859375 -11.015625 C 3.660156 -10.828125 3.5625 -10.421875 3.5625 -9.796875 L 3.5625 -1.421875 C 3.5625 -1.109375 3.648438 -0.90625 3.828125 -0.8125 C 4.015625 -0.726562 4.429688 -0.6875 5.078125 -0.6875 L 6.265625 -0.6875 C 7.742188 -0.6875 8.78125 -1.046875 9.375 -1.765625 C 9.601562 -2.023438 9.859375 -2.460938 10.140625 -3.078125 Z M 10.59375 -3.078125 "/></g></g></g><g fill="#94836e" fill-opacity="1"><g transform="translate(203.851352, 142.834844)"><g><path d="M 5.578125 0 L 0.3125 0 L 0.3125 -0.34375 C 1.0625 -0.363281 1.535156 -0.46875 1.734375 -0.65625 C 1.929688 -0.84375 2.03125 -1.265625 2.03125 -1.921875 L 2.03125 -9.796875 C 2.03125 -10.441406 1.929688 -10.851562 1.734375 -11.03125 C 1.546875 -11.21875 1.070312 -11.335938 0.3125 -11.390625 L 0.3125 -11.71875 L 5.578125 -11.71875 L 5.578125 -11.390625 C 4.835938 -11.347656 4.363281 -11.234375 4.15625 -11.046875 C 3.945312 -10.859375 3.84375 -10.441406 3.84375 -9.796875 L 3.84375 -1.921875 C 3.84375 -1.273438 3.945312 -0.851562 4.15625 -0.65625 C 4.375 -0.46875 4.847656 -0.363281 5.578125 -0.34375 Z M 5.578125 0 "/></g></g></g><g fill="#94836e" fill-opacity="1"><g transform="translate(213.281901, 142.834844)"><g><path d="M 8.6875 -2.96875 C 8.6875 -2.0625 8.34375 -1.296875 7.65625 -0.671875 C 6.96875 -0.0546875 6.109375 0.25 5.078125 0.25 C 4.367188 0.25 3.671875 0.113281 2.984375 -0.15625 C 2.628906 -0.289062 2.351562 -0.359375 2.15625 -0.359375 C 2.03125 -0.359375 1.921875 -0.300781 1.828125 -0.1875 C 1.734375 -0.0703125 1.679688 0.0664062 1.671875 0.234375 L 1.28125 0.234375 L 0.75 -3.515625 L 1.15625 -3.515625 C 1.601562 -2.429688 2.113281 -1.640625 2.6875 -1.140625 C 3.257812 -0.640625 3.941406 -0.390625 4.734375 -0.390625 C 5.378906 -0.390625 5.898438 -0.570312 6.296875 -0.9375 C 6.703125 -1.300781 6.90625 -1.78125 6.90625 -2.375 C 6.90625 -2.8125 6.820312 -3.160156 6.65625 -3.421875 C 6.21875 -4.078125 5.335938 -4.765625 4.015625 -5.484375 C 3.023438 -6.003906 2.316406 -6.53125 1.890625 -7.0625 C 1.460938 -7.59375 1.25 -8.210938 1.25 -8.921875 C 1.25 -9.890625 1.59375 -10.65625 2.28125 -11.21875 C 2.894531 -11.71875 3.5625 -11.96875 4.28125 -11.96875 C 4.875 -11.96875 5.515625 -11.835938 6.203125 -11.578125 C 6.515625 -11.429688 6.769531 -11.359375 6.96875 -11.359375 C 7.28125 -11.359375 7.472656 -11.5625 7.546875 -11.96875 L 7.90625 -11.96875 L 8.296875 -8.203125 L 7.859375 -8.203125 C 7.617188 -9.085938 7.257812 -9.773438 6.78125 -10.265625 C 6.15625 -10.910156 5.4375 -11.234375 4.625 -11.234375 C 4.0625 -11.234375 3.613281 -11.082031 3.28125 -10.78125 C 2.945312 -10.488281 2.78125 -10.097656 2.78125 -9.609375 C 2.78125 -9.128906 2.976562 -8.675781 3.375 -8.25 C 3.78125 -7.820312 4.445312 -7.351562 5.375 -6.84375 C 6.550781 -6.207031 7.394531 -5.585938 7.90625 -4.984375 C 8.425781 -4.378906 8.6875 -3.707031 8.6875 -2.96875 Z M 8.6875 -2.96875 "/></g></g></g><g fill="#94836e" fill-opacity="1"><g transform="translate(226.656442, 142.834844)"><g><path d="M 12.1875 -5.78125 C 12.1875 -4 11.640625 -2.546875 10.546875 -1.421875 C 9.453125 -0.304688 8.03125 0.25 6.28125 0.25 C 5.5 0.25 4.738281 0.0859375 4 -0.234375 C 3.269531 -0.554688 2.644531 -1 2.125 -1.5625 C 1.65625 -2.0625 1.285156 -2.691406 1.015625 -3.453125 C 0.742188 -4.222656 0.609375 -5.023438 0.609375 -5.859375 C 0.609375 -7.640625 1.148438 -9.101562 2.234375 -10.25 C 3.316406 -11.394531 4.703125 -11.96875 6.390625 -11.96875 C 8.128906 -11.96875 9.5625 -11.347656 10.6875 -10.109375 C 11.6875 -9.023438 12.1875 -7.582031 12.1875 -5.78125 Z M 10.15625 -5.8125 C 10.15625 -7.988281 9.65625 -9.53125 8.65625 -10.4375 C 8 -11.03125 7.242188 -11.328125 6.390625 -11.328125 C 5.398438 -11.328125 4.554688 -10.941406 3.859375 -10.171875 C 3.484375 -9.765625 3.179688 -9.160156 2.953125 -8.359375 C 2.734375 -7.566406 2.625 -6.722656 2.625 -5.828125 C 2.625 -4.847656 2.757812 -3.941406 3.03125 -3.109375 C 3.300781 -2.273438 3.664062 -1.65625 4.125 -1.25 C 4.769531 -0.675781 5.515625 -0.390625 6.359375 -0.390625 C 7.296875 -0.390625 8.078125 -0.703125 8.703125 -1.328125 C 9.128906 -1.742188 9.421875 -2.175781 9.578125 -2.625 C 9.960938 -3.632812 10.15625 -4.695312 10.15625 -5.8125 Z M 10.15625 -5.8125 "/></g></g></g><g fill="#94836e" fill-opacity="1"><g transform="translate(242.966873, 142.834844)"><g><path d="M 12.515625 -11.390625 C 11.953125 -11.328125 11.5625 -11.21875 11.34375 -11.0625 C 11 -10.820312 10.828125 -10.171875 10.828125 -9.109375 L 10.828125 0.1875 L 10.53125 0.1875 L 2.703125 -9.546875 L 2.703125 -2.609375 C 2.703125 -1.703125 2.804688 -1.101562 3.015625 -0.8125 C 3.234375 -0.53125 3.6875 -0.375 4.375 -0.34375 L 4.375 0 L 0.21875 0 L 0.21875 -0.34375 C 0.945312 -0.382812 1.410156 -0.539062 1.609375 -0.8125 C 1.816406 -1.09375 1.921875 -1.691406 1.921875 -2.609375 L 1.921875 -10.40625 C 1.578125 -10.820312 1.300781 -11.085938 1.09375 -11.203125 C 0.882812 -11.328125 0.59375 -11.390625 0.21875 -11.390625 L 0.21875 -11.71875 L 3.234375 -11.71875 L 10.0625 -3.15625 L 10.0625 -9.109375 C 10.0625 -10.203125 9.890625 -10.863281 9.546875 -11.09375 C 9.296875 -11.238281 8.898438 -11.335938 8.359375 -11.390625 L 8.359375 -11.71875 L 12.515625 -11.71875 Z M 12.515625 -11.390625 "/></g></g></g><g fill="#a58452" fill-opacity="1"><g transform="translate(143.548118, 46.401118)"><g><path d="M 15.523438 26.175781 C 15.410156 26.175781 15.296875 26.175781 15.183594 26.175781 C 13.824219 26.175781 13.3125 26.117188 13.3125 24.757812 C 13.3125 23.171875 15.015625 20.625 15.808594 19.601562 C 18.414062 16.148438 19.261719 15.636719 22.324219 12.746094 L 25.382812 10.027344 C 25.777344 9.746094 26.0625 9.574219 26.402344 9.234375 C 26.910156 8.894531 27.082031 8.613281 27.648438 8.441406 C 27.933594 11.671875 28.160156 13.425781 26.402344 16.941406 C 26.117188 17.675781 25.609375 18.300781 25.210938 19.035156 C 24.703125 19.828125 24.304688 20.28125 23.683594 21.019531 C 22.152344 23.058594 18.128906 26.175781 15.523438 26.175781 Z M 0 -6.742188 C 0 -3.511719 1.191406 -1.246094 3.625 -0.339844 C 6.175781 0.625 9.234375 0.511719 12.804688 0.566406 L 17.394531 0.90625 C 21.871094 1.417969 24.871094 2.550781 26.910156 6.402344 L 22.378906 10.140625 C 19.320312 12.804688 16.65625 15.128906 14.164062 18.582031 C 12.464844 20.851562 11.5 22.664062 11.5 25.4375 C 11.5 27.820312 14.164062 28.046875 15.75 28.046875 C 21.359375 28.046875 29.859375 18.980469 29.859375 10.992188 C 29.859375 9.574219 29.574219 8.328125 29.292969 7.140625 C 29.746094 6.457031 33.996094 3.171875 35.183594 2.210938 L 38.808594 -0.738281 C 41.132812 -3.003906 43.058594 -4.53125 45.550781 -6.96875 C 48.101562 -9.519531 47.082031 -8.046875 47.082031 -9.519531 C 46.796875 -9.574219 46.570312 -9.6875 46.289062 -9.6875 C 45.835938 -9.6875 45.324219 -9.347656 44.023438 -7.988281 C 43.285156 -7.253906 42.605469 -6.800781 41.871094 -6.0625 L 37.507812 -2.210938 C 34.957031 -0.171875 30.878906 3.511719 28.386719 5.15625 C 27.761719 2.777344 24.136719 0.566406 21.925781 -0.113281 C 17.960938 -1.417969 15.355469 -1.078125 11.332031 -1.304688 C 8.273438 -1.417969 3.511719 -1.304688 2.4375 -4.191406 C 1.871094 -5.835938 2.097656 -7.480469 2.324219 -9.234375 C 2.832031 -12.066406 4.703125 -17.28125 6.34375 -19.828125 C 7.421875 -21.8125 8.046875 -23.058594 9.574219 -25.382812 L 16.261719 -33.371094 C 16.769531 -33.996094 17.222656 -34.222656 17.789062 -34.730469 C 18.695312 -35.636719 20.167969 -36.542969 21.246094 -37.222656 C 22.777344 -38.074219 24.417969 -38.695312 26.003906 -38.695312 C 27.820312 -38.695312 29.460938 -37.902344 30.59375 -35.75 C 32.972656 -31.160156 32.011719 -24.703125 31.21875 -19.886719 C 30.933594 -18.753906 29.007812 -12.066406 30.765625 -12.066406 C 32.011719 -12.066406 32.238281 -13.597656 32.632812 -15.355469 C 33.710938 -19.375 34.789062 -24.136719 34.789062 -28.613281 C 34.789062 -34.449219 32.292969 -40.679688 26.910156 -41.078125 C 21.359375 -41.078125 17.449219 -37.847656 13.65625 -34.164062 C 11.5 -31.898438 8.441406 -28.160156 6.96875 -25.496094 C 3.683594 -20.339844 0 -12.804688 0 -6.742188 Z M 0 -6.742188 "/></g></g></g><g fill="#a58452" fill-opacity="1"><g transform="translate(188.646646, 46.401118)"><g><path d="M 0 -4.304688 L 0 0.511719 C 0 1.585938 0.113281 1.757812 0.171875 2.605469 C 0.285156 4.023438 -0.226562 5.949219 1.304688 5.949219 C 2.4375 5.949219 2.777344 2.71875 3.625 0.226562 L 6.117188 -5.210938 C 6.742188 -2.605469 7.140625 0 7.988281 2.492188 C 8.441406 3.851562 9.066406 6.457031 10.480469 7.140625 C 10.652344 7.195312 10.820312 7.253906 10.933594 7.253906 C 11.386719 7.253906 11.671875 6.855469 11.953125 6.515625 C 11.785156 5.777344 11.273438 5.269531 10.707031 3.851562 C 9.859375 1.585938 8.667969 -3.457031 8.441406 -5.835938 C 8.101562 -9.066406 8.046875 -9.007812 9.066406 -10.707031 C 9.347656 -11.160156 9.632812 -11.558594 9.914062 -12.011719 C 11.558594 -14.789062 13.824219 -16.65625 11.386719 -16.65625 C 9.519531 -16.65625 2.550781 -2.039062 2.210938 -1.699219 C 2.210938 -9.746094 3.230469 -20.90625 4.757812 -29.292969 C 5.210938 -31.839844 6.289062 -33.824219 4.078125 -33.824219 C 2.097656 -33.824219 0.90625 -21.644531 0.738281 -20.339844 C 0.285156 -15.296875 0 -9.746094 0 -4.304688 Z M 0 -4.304688 "/></g></g></g><g fill="#a58452" fill-opacity="1"><g transform="translate(201.507661, 46.401118)"><g><path d="M 4.703125 0.226562 C 7.367188 0.226562 9.519531 -2.265625 10.878906 -3.683594 C 11.785156 -4.589844 15.183594 -8.386719 15.183594 -9.460938 C 15.183594 -9.972656 15.015625 -10.140625 14.789062 -10.140625 C 13.710938 -10.140625 10.707031 -6.117188 10.480469 -5.835938 C 9.632812 -4.757812 6.683594 -1.757812 4.871094 -1.757812 C 3.34375 -1.757812 2.71875 -5.097656 2.71875 -6.800781 C 2.71875 -12.578125 4.984375 -15.128906 2.378906 -15.128906 C 1.246094 -15.128906 0.679688 -12.578125 0.511719 -11.386719 C -0.113281 -8.5 0 -4.589844 1.359375 -2.039062 C 1.984375 -0.964844 3.171875 0.226562 4.703125 0.226562 Z M 2.890625 -22.265625 C 2.890625 -21.019531 3.625 -20.453125 4.417969 -20.453125 C 5.550781 -20.453125 6.742188 -21.699219 5.664062 -23.796875 C 5.324219 -24.417969 4.929688 -24.644531 4.53125 -24.644531 C 3.683594 -24.644531 2.890625 -23.570312 2.890625 -22.265625 Z M 2.890625 -22.265625 "/></g></g></g><g fill="#a58452" fill-opacity="1"><g transform="translate(214.425326, 46.401118)"><g><path d="M 1.585938 -2.945312 C 3.796875 -2.945312 6.0625 -10.199219 7.933594 -11.445312 C 8.441406 -10.367188 7.648438 -8.101562 8.78125 -4.703125 C 9.292969 -3.171875 10.253906 -1.644531 12.011719 -1.644531 C 12.351562 -1.644531 12.691406 -1.699219 13.085938 -1.8125 C 14.390625 -2.152344 16.203125 -4.417969 16.996094 -5.4375 C 17.335938 -5.890625 20.679688 -10.085938 18.46875 -10.085938 C 17.449219 -10.085938 14.449219 -3.34375 12.179688 -3.34375 C 10.085938 -3.34375 9.972656 -8.386719 9.972656 -9.800781 L 9.632812 -12.972656 C 9.347656 -13.597656 8.953125 -13.882812 8.554688 -13.882812 C 7.195312 -13.882812 5.496094 -10.992188 5.15625 -10.367188 L 2.4375 -6.230469 C 2.4375 -10.652344 6.117188 -15.976562 3.625 -15.976562 C 1.472656 -15.976562 -2.039062 -2.945312 1.585938 -2.945312 Z M 1.585938 -2.945312 "/></g></g></g></svg>