<?xml version="1.0" standalone="no"?>
<!DOCTYPE svg PUBLIC "-//W3C//DTD SVG 20010904//EN"
 "http://www.w3.org/TR/2001/REC-SVG-20010904/DTD/svg10.dtd">
<svg version="1.0" xmlns="http://www.w3.org/2000/svg"
 width="500.000000pt" height="500.000000pt" viewBox="0 0 500.000000 500.000000"
 preserveAspectRatio="xMidYMid meet">
<metadata>
Created by potrace 1.14, written by Peter Selinger 2001-2017
</metadata>
<g transform="translate(0.000000,500.000000) scale(0.100000,-0.100000)"
fill="#000000" stroke="none">
<path d="M3730 3870 c-192 -42 -338 -111 -540 -259 -190 -138 -460 -448 -556
-639 l-31 -62 -7 39 c-5 31 -1 48 15 76 17 28 20 47 16 83 -2 26 -8 55 -12 64
-4 12 1 25 18 42 14 14 23 27 20 30 -3 3 10 14 28 25 19 12 28 21 21 21 -20 0
-4 20 25 31 13 5 21 14 18 19 -3 6 2 13 12 16 10 3 25 8 33 10 12 4 12 6 1 14
-11 6 -5 12 23 24 21 9 35 20 31 26 -4 6 7 15 24 21 17 6 31 15 31 20 0 4 -8
5 -17 2 -16 -6 -16 -5 -4 10 7 9 19 17 25 17 7 0 21 7 32 16 17 14 17 15 1 10
-15 -5 -16 -3 -6 17 7 12 23 30 36 40 13 11 21 22 18 25 -3 4 -10 0 -15 -8 -8
-12 -10 -11 -10 6 0 11 9 29 20 39 11 10 20 25 20 34 -1 11 -5 8 -15 -9 l-14
-25 -1 32 c0 17 5 35 10 38 6 3 10 16 9 28 0 21 -1 21 -8 3 -7 -19 -8 -19 -13
1 -3 11 -2 27 3 34 5 8 8 23 8 34 0 17 -2 16 -11 -5 l-10 -25 -10 28 c-5 15
-14 27 -19 27 -5 0 -4 -11 1 -26 14 -35 13 -39 -5 -24 -9 7 -18 10 -21 7 -3
-3 6 -13 20 -22 14 -10 26 -26 26 -37 0 -17 -2 -18 -15 -8 -9 7 -18 10 -21 7
-3 -3 3 -12 15 -19 12 -7 21 -23 21 -37 0 -24 0 -24 -15 -5 -10 13 -14 15 -15
5 0 -8 7 -22 15 -31 11 -12 13 -24 7 -40 l-9 -24 -7 25 c-4 13 -10 19 -12 12
-3 -7 0 -21 6 -33 8 -16 7 -25 -5 -42 -13 -19 -15 -20 -15 -5 0 10 -5 15 -10
12 -6 -4 -8 -15 -5 -24 3 -11 -3 -25 -17 -37 -19 -17 -21 -17 -15 -1 4 9 2 17
-3 17 -6 0 -10 -11 -10 -24 0 -13 -7 -29 -15 -36 -11 -9 -15 -9 -15 -1 0 7 -4
9 -10 6 -5 -3 -10 -14 -10 -24 0 -10 -8 -25 -17 -32 -11 -10 -14 -10 -9 -1 4
6 2 12 -3 12 -6 0 -11 -8 -11 -19 0 -10 -7 -24 -15 -31 -11 -9 -15 -9 -15 -1
0 7 -4 9 -10 6 -5 -3 -10 -14 -10 -24 0 -25 -26 -47 -33 -29 -3 7 -6 3 -6 -9
-1 -12 -10 -27 -21 -33 -11 -6 -20 -16 -20 -23 0 -7 -6 -21 -13 -31 -13 -18
-15 -18 -41 -1 -35 23 -106 24 -141 1 -26 -17 -26 -17 -40 17 -8 19 -21 37
-30 40 -8 4 -15 17 -16 29 0 13 -3 17 -6 10 -7 -19 -33 5 -33 30 0 13 -5 18
-14 15 -17 -7 -36 11 -36 35 0 10 -5 18 -11 18 -5 0 -7 -6 -3 -12 5 -9 2 -9
-9 1 -9 7 -17 22 -17 32 0 11 -5 19 -11 19 -5 0 -7 -6 -3 -12 4 -7 -2 -4 -14
6 -12 11 -23 31 -23 45 -1 18 -3 21 -6 8 -4 -17 -6 -17 -23 -2 -10 9 -16 24
-13 34 3 11 0 22 -6 25 -6 4 -11 0 -11 -10 0 -16 -1 -16 -14 1 -10 13 -11 25
-5 37 13 24 11 47 -3 23 -11 -19 -11 -19 -18 0 -4 12 -2 28 6 40 19 26 17 45
-1 21 -15 -19 -15 -19 -15 5 0 13 9 33 21 42 11 10 18 21 14 25 -4 4 -10 1
-12 -5 -7 -20 -23 -15 -23 5 0 11 11 24 25 30 14 6 25 17 25 23 0 8 -5 8 -15
-1 -21 -17 -29 -7 -16 18 14 25 14 32 1 32 -5 0 -12 -11 -16 -24 -4 -16 -11
-23 -20 -19 -16 6 -18 -10 -4 -37 5 -10 7 -26 3 -36 -6 -16 -7 -16 -14 2 -7
18 -8 17 -8 -3 -1 -12 4 -25 9 -28 6 -3 10 -21 10 -38 l-1 -32 -14 25 c-8 14
-14 19 -15 11 0 -8 8 -24 19 -35 10 -12 22 -32 26 -46 7 -20 5 -23 -7 -15 -7
6 -5 1 7 -10 11 -11 27 -29 35 -39 14 -18 13 -18 -10 -12 -24 7 -24 6 -6 -8
11 -9 25 -16 32 -16 6 0 17 -7 24 -15 11 -13 10 -15 -6 -9 -18 5 -18 5 0 -10
11 -9 25 -16 32 -16 6 0 17 -7 24 -15 11 -13 10 -14 -5 -9 -13 5 -16 4 -11 -4
4 -7 15 -12 25 -12 10 0 24 -7 31 -15 9 -11 9 -15 1 -15 -7 0 -9 -4 -6 -10 3
-5 14 -10 24 -10 23 0 51 -30 30 -30 -8 -1 1 -7 18 -15 23 -10 31 -19 27 -29
-4 -11 0 -16 15 -16 12 0 22 -4 22 -10 1 -5 2 -13 3 -17 1 -5 23 -29 48 -55
46 -48 98 -137 98 -170 0 -30 -39 -21 -77 17 -32 32 -35 39 -31 84 4 58 -11
52 -19 -7 -4 -31 0 -50 16 -77 13 -23 21 -53 21 -81 l0 -46 -40 79 c-22 43
-52 92 -65 108 -17 20 -13 10 11 -28 40 -65 73 -135 74 -155 0 -14 -17 -8
-134 49 -93 45 -161 110 -280 269 -110 146 -264 312 -361 390 -66 52 -203 140
-219 140 -5 0 29 -23 75 -50 46 -28 91 -58 99 -67 14 -14 12 -15 -20 -9 -160
31 -244 38 -408 33 -94 -2 -172 -2 -172 2 0 4 -20 31 -45 60 -47 55 -58 90
-27 92 14 0 14 2 -3 8 -11 5 -22 5 -25 1 -3 -4 -21 -15 -41 -23 -49 -20 -79
-55 -79 -91 0 -23 12 -42 47 -79 l48 -48 1 -72 c0 -40 1 -80 2 -90 1 -10 29
-47 62 -82 61 -66 65 -76 61 -157 -3 -47 11 -73 71 -129 l49 -46 -3 -68 c-2
-66 -1 -68 33 -99 20 -17 49 -38 67 -48 22 -11 34 -28 43 -58 7 -23 22 -48 34
-56 41 -27 132 -37 229 -25 77 9 106 19 189 60 137 69 245 94 417 95 74 0 162
-3 195 -8 l60 -9 -50 -8 c-130 -21 -186 -31 -182 -36 3 -2 45 3 93 11 49 8
109 17 134 20 45 5 45 5 12 -7 -18 -7 -30 -16 -25 -21 4 -5 -2 -5 -14 -2 -15
5 -53 -5 -115 -29 -322 -128 -516 -301 -663 -594 -32 -64 -39 -72 -47 -57 -7
13 -7 30 1 56 15 50 14 84 -4 127 l-15 36 57 71 c157 192 254 275 388 328 39
15 64 27 57 28 -30 0 -161 -63 -217 -105 -59 -44 -153 -144 -243 -257 -25 -32
-50 -58 -57 -58 -23 0 -64 40 -75 75 -10 32 -9 40 15 80 14 25 48 73 76 107
l50 63 -46 -50 c-57 -61 -142 -197 -156 -247 -11 -44 6 -97 48 -140 22 -23 24
-33 20 -75 -3 -26 -8 -60 -12 -74 -8 -31 25 -74 90 -119 49 -34 71 -82 62
-136 -7 -44 9 -101 33 -114 10 -5 34 -10 54 -10 29 0 38 -6 58 -37 18 -30 23
-51 22 -103 -1 -76 -14 -107 -89 -197 -69 -83 -78 -128 -37 -175 10 -13 30
-18 63 -18 40 0 51 4 73 31 14 17 26 38 26 47 1 72 22 199 41 242 25 59 26 59
132 21 54 -20 59 -20 88 -5 31 16 32 15 68 -20 47 -46 80 -47 115 -5 20 23 26
42 26 78 0 54 9 69 63 100 45 27 80 85 102 166 13 50 15 95 10 265 -3 113 -2
239 3 280 l8 75 17 -50 c50 -145 137 -144 184 3 31 97 38 51 39 -266 0 -193 4
-309 12 -330 20 -60 61 -120 97 -142 48 -30 65 -57 65 -106 0 -31 7 -51 26
-73 34 -41 64 -40 113 5 39 35 40 35 70 19 29 -14 35 -14 88 6 91 34 104 32
131 -22 15 -30 26 -79 33 -140 12 -122 14 -130 39 -157 27 -28 109 -31 132 -4
38 42 30 108 -18 153 l-26 24 26 -39 c34 -50 34 -88 0 -115 -35 -28 -66 -26
-96 4 -22 21 -26 39 -36 133 -12 116 -37 190 -72 215 -19 13 -28 12 -94 -11
-62 -22 -78 -25 -99 -15 -24 11 -26 17 -26 75 0 103 -20 244 -43 305 -11 32
-43 96 -69 143 -95 168 -159 366 -159 488 l1 47 37 -70 c52 -98 79 -134 108
-141 29 -8 144 -145 180 -216 23 -45 24 -57 24 -220 0 -185 9 -237 44 -273
l22 -22 -30 -13 c-17 -8 -42 -17 -56 -21 -21 -5 -22 -7 -5 -8 12 0 38 8 60 19
22 11 54 20 73 20 45 0 68 14 77 47 7 25 10 21 21 -37 7 -36 13 -81 14 -101 0
-58 28 -123 68 -160 32 -30 34 -30 11 -4 -46 52 -63 95 -63 165 -1 52 4 73 22
103 20 31 29 37 58 37 20 0 44 5 54 10 23 12 41 72 34 109 -11 53 13 108 60
140 66 46 99 89 91 120 -4 14 -9 47 -12 73 -4 43 -2 51 31 89 44 52 53 93 31
145 -20 49 -100 177 -120 194 -8 7 6 -18 31 -56 35 -53 44 -73 39 -93 -9 -38
-29 -64 -60 -81 -26 -14 -28 -13 -48 15 -53 73 -202 237 -250 275 -48 39 -156
100 -174 100 -4 0 24 -17 62 -38 39 -20 89 -52 113 -71 39 -32 153 -159 230
-256 l31 -40 -15 -45 c-14 -37 -14 -55 -5 -101 6 -31 8 -65 5 -75 -6 -16 -5
-17 7 -6 11 10 11 23 1 70 -12 58 -2 132 18 132 24 0 52 -63 55 -123 1 -34 6
-75 10 -92 5 -25 2 -35 -24 -59 -17 -16 -33 -28 -35 -25 -2 2 -20 39 -40 83
-20 43 -64 126 -98 184 -147 249 -397 432 -717 527 l-74 22 64 14 c103 23 365
18 461 -9 85 -23 208 -74 249 -103 38 -27 197 -44 274 -30 76 14 94 27 114 81
13 36 26 50 67 73 66 38 77 57 75 136 l-1 64 49 46 c61 58 75 84 67 131 -9 56
9 99 63 155 59 60 74 94 65 151 -9 64 3 98 52 146 38 37 44 48 44 84 0 34 -6
48 -32 73 -102 99 -297 135 -498 91z m353 -25 c47 -17 68 -43 25 -31 -84 24
-229 16 -357 -20 -79 -23 -57 -25 29 -3 158 41 350 34 350 -13 0 -11 -20 -43
-45 -70 -25 -28 -45 -53 -45 -57 0 -3 -96 -6 -212 -6 -164 0 -233 -4 -302 -18
-48 -10 -90 -16 -93 -13 -7 7 85 66 176 112 47 24 82 44 76 44 -5 0 -45 -18
-90 -40 -176 -87 -364 -262 -557 -516 -117 -155 -152 -193 -210 -232 -61 -40
-203 -103 -207 -91 -5 17 56 133 116 216 86 121 236 295 326 379 100 93 290
222 415 281 51 25 143 58 205 74 101 26 124 29 232 25 80 -2 136 -9 168 -21z
m72 -35 c3 -5 1 -10 -4 -10 -6 0 -11 5 -11 10 0 6 2 10 4 10 3 0 8 -4 11 -10z
m-3290 -50 c4 -16 16 -38 29 -47 23 -19 56 -62 56 -74 0 -4 -8 -10 -17 -13
-10 -3 11 -2 47 2 119 13 389 6 488 -12 51 -9 98 -14 104 -10 7 4 8 3 4 -4 -5
-8 0 -12 12 -12 11 0 60 -39 113 -91 69 -66 87 -89 69 -84 -14 3 -68 18 -120
32 -85 24 -113 26 -270 27 -161 0 -182 -2 -260 -26 -46 -15 -89 -24 -93 -21
-16 10 -37 72 -38 110 0 21 -4 47 -9 58 -5 12 -6 -4 -3 -40 5 -49 19 -99 40
-136 2 -3 -7 -11 -19 -18 -22 -11 -6 -8 27 5 20 8 55 -53 55 -98 0 -20 5 -49
11 -65 8 -23 7 -30 -8 -41 -17 -13 -17 -14 3 -8 16 5 26 -1 45 -29 13 -19 27
-35 32 -35 11 0 47 -62 47 -81 0 -12 -25 -29 -102 -67 -3 -2 -11 13 -18 32 -6
20 -25 45 -43 57 -68 47 -73 70 -19 98 20 11 33 20 27 20 -5 0 -21 -6 -35 -14
-38 -21 -43 -18 -36 21 9 44 -9 101 -41 136 l-25 26 28 16 c16 8 24 15 19 16
-6 0 -21 -7 -33 -16 -19 -13 -26 -13 -38 -3 -30 24 -38 55 -39 141 l0 86 30
11 30 10 -35 -5 c-31 -5 -40 0 -78 39 -55 56 -54 82 3 114 51 29 52 29 60 -7z
m3331 10 c61 -30 62 -53 6 -112 l-47 -49 -50 12 c-28 6 -52 13 -54 15 -6 5 30
57 61 86 15 14 28 35 28 47 0 26 3 26 56 1z m-228 -136 c60 -7 62 -8 57 -33
-5 -25 -5 -25 4 -3 12 25 27 27 80 11 l36 -11 2 -81 c2 -79 -5 -105 -34 -139
-14 -16 -18 -16 -54 2 -21 11 -42 20 -46 20 -4 -1 9 -10 31 -21 l38 -21 -20
-21 c-33 -37 -45 -68 -44 -124 0 -29 -1 -53 -3 -53 -1 0 -28 12 -59 26 -45 20
-56 30 -51 43 4 9 10 41 14 72 9 72 34 112 64 104 16 -5 18 -4 8 3 -11 8 -11
14 3 33 9 13 16 28 16 34 0 5 -9 -4 -19 -22 l-20 -31 -88 26 c-79 23 -105 26
-258 26 -146 0 -183 -3 -260 -23 -49 -13 -105 -29 -122 -37 -18 -7 -33 -9 -33
-4 0 16 184 180 203 180 11 0 15 4 11 12 -4 7 -3 8 5 4 6 -4 53 -1 104 8 51 9
106 17 122 19 55 7 251 7 313 1z m-2443 -175 c97 -13 210 -42 261 -66 35 -16
154 -149 185 -206 10 -17 8 -17 -28 1 -57 29 -184 70 -275 88 -118 24 -292 15
-423 -21 -146 -40 -138 -43 -152 44 -7 41 -19 81 -28 91 -21 23 -20 25 28 40
125 38 290 49 432 29z m2339 -18 c44 -12 81 -23 83 -25 3 -2 -3 -16 -13 -31
-10 -15 -21 -54 -25 -87 -4 -33 -11 -64 -17 -70 -6 -6 -42 0 -98 16 -139 39
-216 49 -338 43 -123 -6 -227 -30 -352 -80 l-83 -34 32 44 c17 25 55 73 83
107 50 60 54 63 144 90 51 16 129 35 174 42 112 18 308 11 410 -15z m-2133
-190 c128 -33 241 -81 274 -116 110 -114 138 -148 120 -141 -76 30 -173 59
-273 83 -102 24 -137 27 -277 27 -144 0 -168 -3 -240 -26 -44 -14 -87 -28 -96
-32 -12 -5 -18 0 -23 20 -4 15 -27 50 -52 77 -24 27 -44 53 -44 57 0 8 110 42
210 65 91 20 300 13 401 -14z m1934 14 c100 -21 215 -57 215 -66 0 -5 -20 -31
-45 -59 -25 -28 -48 -62 -51 -76 -5 -19 -11 -23 -23 -18 -9 4 -52 18 -96 32
-71 23 -97 26 -235 26 -191 1 -299 -20 -555 -109 -13 -5 -10 1 11 18 17 14 50
52 75 83 34 45 57 63 107 85 196 88 425 120 597 84z m-1120 -59 c19 -8 35 -20
35 -26 0 -13 -73 -139 -81 -140 -3 0 -13 15 -22 33 -8 17 -27 51 -41 73 l-26
42 33 16 c40 19 58 20 102 2z m1416 -32 c33 -15 59 -29 59 -33 -1 -12 -35 -49
-62 -66 -15 -9 -35 -34 -44 -55 l-17 -38 -54 26 c-31 15 -53 33 -53 42 0 14
98 149 109 150 2 0 30 -12 62 -26z m-1345 -58 c8 -44 -17 -96 -55 -119 -43
-25 -55 -22 -47 14 8 40 75 151 86 144 5 -3 12 -21 16 -39z m-786 -46 c136
-29 255 -68 377 -124 54 -25 95 -46 90 -46 -4 0 -85 14 -180 32 -141 27 -196
32 -307 32 -160 -1 -234 -15 -386 -76 -60 -23 -112 -43 -117 -43 -4 0 -28 27
-52 60 -61 81 -61 109 2 137 138 61 365 72 573 28z m1829 0 c106 -30 131 -45
131 -78 0 -23 -50 -104 -89 -145 -4 -4 -36 6 -72 22 -160 72 -351 109 -503 97
-45 -3 -157 -19 -249 -36 -92 -16 -170 -30 -174 -30 -18 0 150 74 236 104 208
72 349 97 521 91 87 -2 147 -10 199 -25z m245 -131 c8 -39 -8 -75 -41 -95 -15
-9 -39 -25 -53 -34 -25 -17 -28 -17 -64 2 l-37 19 17 27 c10 15 30 45 46 66
15 21 28 52 28 68 l0 29 49 -26 c37 -20 50 -34 55 -56z m-2704 48 c0 -13 13
-42 28 -63 68 -94 67 -89 29 -112 -33 -19 -34 -19 -58 -1 -13 10 -28 19 -32
19 -5 0 -22 9 -38 21 -25 18 -29 27 -29 68 0 45 1 48 43 68 54 28 57 28 57 0z
m1274 -25 c15 -4 17 -11 12 -46 -4 -23 -16 -61 -28 -84 -28 -58 -38 -40 -38
67 0 75 2 82 18 76 9 -4 25 -10 36 -13z m104 -67 c-2 -47 -7 -86 -13 -88 -14
-3 -43 59 -51 109 -6 39 -4 42 22 52 16 6 33 11 37 11 4 1 6 -37 5 -84z m-648
54 c78 -9 277 -44 407 -70 49 -10 53 -13 62 -47 6 -20 9 -37 8 -38 -1 -2 -47
4 -102 11 -243 35 -422 13 -629 -77 -63 -27 -74 -29 -155 -24 -89 5 -91 2 -6
-10 l50 -7 -40 -8 c-57 -11 -174 -11 -216 1 -43 12 -64 34 -73 75 -6 26 -3 33
23 48 37 22 37 22 56 -10 15 -25 14 -16 0 20 -11 27 194 108 316 126 41 6 85
13 99 15 51 7 118 6 200 -5z m1511 -27 c77 -21 241 -90 247 -104 2 -5 8 -6 13
-3 4 3 22 -1 39 -10 28 -15 31 -20 25 -48 -4 -18 -14 -40 -23 -49 -30 -35
-126 -47 -252 -31 -45 5 -50 8 -30 14 18 5 10 7 -30 8 -35 1 -74 10 -108 26
-190 88 -411 113 -650 73 -35 -5 -66 -8 -69 -5 -3 4 -3 21 1 40 6 33 8 34 74
46 37 6 141 25 232 41 146 26 182 29 310 26 103 -3 167 -10 221 -24z m-914
-90 c12 -26 28 -55 35 -64 23 -32 -22 -284 -54 -305 -28 -16 -54 60 -69 199
-10 96 -10 98 15 130 13 18 28 45 31 61 4 15 10 27 14 27 3 0 16 -22 28 -48z
m-121 -159 c-1 -49 -9 -120 -18 -159 -30 -126 -40 -277 -32 -486 6 -187 5
-202 -15 -265 -22 -67 -36 -91 -77 -126 -21 -17 -21 -17 -20 50 0 38 -5 105
-12 150 -13 88 -2 343 18 414 20 68 9 52 -28 -41 -21 -52 -68 -151 -105 -220
-40 -76 -72 -151 -81 -190 -16 -72 -30 -214 -27 -273 2 -31 -2 -39 -25 -49
-23 -11 -37 -9 -100 14 -73 26 -74 26 -98 7 -33 -26 -55 -95 -67 -213 -6 -56
-17 -108 -26 -122 -44 -67 -149 -18 -129 60 3 14 31 54 61 90 31 36 62 81 71
101 19 46 32 191 16 181 -7 -4 -12 -1 -12 9 0 29 -55 75 -89 75 -36 0 -37 7
-19 96 l13 59 5 -39 c4 -35 9 -41 44 -53 62 -21 77 -40 73 -87 -2 -23 -2 -31
0 -18 5 26 23 20 23 -8 0 -24 29 -40 72 -40 19 0 51 -9 73 -20 22 -11 48 -19
60 -19 17 1 16 3 -5 8 -14 4 -39 14 -57 21 l-31 14 24 18 c36 29 44 77 44 268
0 151 3 181 20 218 30 66 148 211 184 226 40 16 50 29 103 129 l44 82 -5 -85
c-3 -47 -8 -98 -11 -115 -3 -16 2 -7 10 20 8 28 17 94 21 148 7 102 9 107 84
212 12 17 4 10 -19 -15 -22 -24 -47 -58 -55 -75 -8 -16 -35 -74 -60 -127 -58
-123 -96 -168 -141 -168 -25 0 -40 8 -59 31 -67 79 6 199 188 309 66 39 160
88 173 90 1 0 1 -39 -1 -87z m285 40 c180 -94 289 -204 289 -289 0 -47 -42
-94 -85 -94 -46 0 -74 36 -152 197 -40 83 -81 151 -110 183 -24 27 -42 50 -38
50 4 0 47 -21 96 -47z m225 -68 c242 -117 387 -256 518 -494 64 -117 65 -124
21 -151 -19 -12 -44 -38 -54 -57 l-17 -35 -19 48 c-52 143 -230 381 -465 623
-30 31 -92 78 -137 105 -46 27 -83 50 -83 52 0 8 156 -52 236 -91z m-642 62
c-84 -49 -161 -106 -194 -146 -19 -23 -69 -79 -111 -125 -138 -152 -260 -323
-319 -448 l-37 -79 -13 31 c-7 18 -30 43 -52 57 -21 14 -38 31 -38 37 0 17 86
173 132 241 126 185 291 311 538 412 115 47 158 56 94 20z m401 -72 c18 -31
26 -66 34 -155 6 -63 19 -146 31 -185 31 -109 48 -365 30 -468 -8 -45 -14
-110 -13 -144 l0 -62 -23 17 c-13 9 -39 46 -57 82 l-32 65 3 235 c2 251 -7
385 -39 518 -10 46 -19 109 -19 140 l0 56 31 -30 c17 -16 41 -47 54 -69z m-82
-220 c-46 -204 -137 -213 -188 -19 -13 51 -13 64 2 128 12 53 18 66 23 51 39
-105 47 -120 66 -123 24 -3 45 32 65 113 l12 49 17 -69 c14 -61 14 -78 3 -130z
m-568 -48 c8 -11 26 -28 40 -37 l26 -17 -58 -74 c-87 -110 -108 -141 -111
-169 -1 -14 -4 -108 -5 -210 -2 -199 -9 -228 -54 -249 -27 -13 -73 -14 -88 -3
-6 4 -16 24 -22 45 -20 67 35 222 129 360 22 33 37 61 35 63 -3 3 -28 -32 -58
-78 -54 -85 -102 -193 -114 -261 l-7 -38 -22 19 c-11 11 -38 27 -60 36 l-38
16 4 72 c3 61 11 88 45 158 45 93 162 259 269 385 l69 79 3 -39 c2 -21 10 -47
17 -58z m1162 -137 c52 -69 115 -167 141 -219 40 -81 47 -104 50 -167 l4 -74
-38 -16 c-22 -9 -47 -23 -57 -32 -9 -8 -18 -13 -20 -11 -1 2 -15 43 -30 90
-26 82 -109 236 -144 269 -13 12 -12 8 2 -15 100 -159 115 -191 145 -297 19
-70 14 -133 -14 -150 -27 -18 -78 -8 -107 21 -33 33 -32 23 -35 261 -1 96 -3
182 -4 190 -1 9 -39 65 -85 125 l-84 109 29 17 c37 23 50 48 50 96 l1 38 51
-55 c28 -30 93 -111 145 -180z m483 67 c0 -28 -30 -86 -50 -97 -14 -8 -23 -2
-43 29 l-26 38 30 22 c16 12 36 36 45 54 l17 32 13 -30 c7 -16 13 -38 14 -48z
m-2295 43 c3 -11 22 -33 42 -49 l35 -29 -27 -36 c-14 -19 -32 -33 -39 -30 -7
3 -23 23 -35 44 -19 34 -21 45 -11 80 12 44 25 51 35 20z m106 -130 c10 -32 9
-51 -1 -95 -11 -44 -11 -57 0 -70 11 -13 10 -22 -5 -55 -10 -22 -21 -40 -25
-40 -3 0 -19 13 -35 30 -27 28 -28 31 -16 70 7 22 11 62 10 88 -2 37 3 56 21
80 13 18 27 32 31 32 5 0 14 -18 20 -40z m738 -110 c-13 -122 -10 -234 7 -320
12 -57 14 -93 8 -121 -8 -37 -15 -43 -85 -81 -59 -31 -83 -39 -104 -34 l-26 7
6 82 c13 165 21 193 113 374 48 94 87 171 88 170 0 -1 -3 -36 -7 -77z m736
-309 c8 -36 17 -105 20 -153 l7 -87 -28 -7 c-20 -5 -38 -1 -64 15 -19 11 -52
28 -72 37 -56 24 -65 61 -43 182 14 77 17 128 12 243 l-6 146 80 -155 c55
-106 85 -177 94 -221z m-1359 132 c13 -29 12 -42 -6 -112 -11 -44 -20 -89 -20
-101 0 -12 -4 -18 -10 -15 -5 3 -10 32 -10 63 0 79 -15 126 -50 156 -35 29
-34 26 -15 72 l15 36 41 -33 c23 -18 48 -48 55 -66z m1931 39 c4 -17 0 -28
-16 -38 -35 -25 -54 -74 -56 -146 -2 -77 -15 -98 -59 -98 -40 0 -70 -21 -86
-60 -15 -37 -19 -34 -31 20 -12 54 -1 72 61 99 45 19 50 25 50 53 0 45 9 30
25 -43 7 -35 14 -53 14 -39 1 14 -7 60 -18 102 -21 91 -13 124 47 175 34 30
38 31 50 15 7 -9 15 -27 19 -40z m-1337 -398 c-6 -14 -10 -40 -10 -58 0 -35
-32 -86 -55 -86 -23 0 -104 74 -104 95 -1 18 4 20 32 17 25 -3 46 4 82 27 59
38 67 38 55 5z m693 -16 c19 -14 39 -19 62 -16 30 3 35 1 34 -17 0 -19 -80
-95 -100 -95 -25 0 -59 50 -59 87 0 21 -3 49 -7 62 -6 22 -4 23 18 11 13 -7
37 -22 52 -32z"/>
<path d="M4013 3530 c0 -25 2 -35 4 -22 2 12 2 32 0 45 -2 12 -4 2 -4 -23z"/>
<path d="M1330 2751 c0 -10 39 -36 45 -29 2 2 -8 11 -21 21 -13 10 -24 13 -24
8z"/>
<path d="M1398 2713 c6 -2 18 -2 25 0 6 3 1 5 -13 5 -14 0 -19 -2 -12 -5z"/>
<path d="M3661 2753 c-10 -26 -10 -27 4 -9 8 11 15 23 15 28 0 15 -7 8 -19
-19z"/>
<path d="M3528 2703 c7 -3 16 -2 19 1 4 3 -2 6 -13 5 -11 0 -14 -3 -6 -6z"/>
<path d="M998 3823 c18 -2 45 -2 60 0 15 2 0 4 -33 4 -33 0 -45 -2 -27 -4z"/>
<path d="M918 3813 c6 -2 18 -2 25 0 6 3 1 5 -13 5 -14 0 -19 -2 -12 -5z"/>
<path d="M1101 3816 c2 -2 27 -6 54 -9 34 -4 42 -3 25 3 -25 8 -87 13 -79 6z"/>
<path d="M1218 3793 c7 -3 16 -2 19 1 4 3 -2 6 -13 5 -11 0 -14 -3 -6 -6z"/>
<path d="M1294 3770 c28 -11 51 -18 53 -16 5 5 -74 36 -90 36 -6 -1 10 -10 37
-20z"/>
<path d="M1990 3435 c19 -19 36 -35 39 -35 3 0 -10 16 -29 35 -19 19 -36 35
-39 35 -3 0 10 -16 29 -35z"/>
<path d="M2080 3335 c13 -14 26 -25 28 -25 3 0 -5 11 -18 25 -13 14 -26 25
-28 25 -3 0 5 -11 18 -25z"/>
<path d="M2130 3275 c13 -14 26 -25 28 -25 3 0 -5 11 -18 25 -13 14 -26 25
-28 25 -3 0 5 -11 18 -25z"/>
<path d="M2185 3210 c10 -11 20 -20 23 -20 3 0 -3 9 -13 20 -10 11 -20 20 -23
20 -3 0 3 -9 13 -20z"/>
<path d="M2210 3176 c0 -2 8 -10 18 -17 15 -13 16 -12 3 4 -13 16 -21 21 -21
13z"/>
<path d="M2240 3136 c0 -2 8 -10 18 -17 15 -13 16 -12 3 4 -13 16 -21 21 -21
13z"/>
<path d="M2671 2766 c2 -2 33 -6 69 -9 41 -3 54 -2 35 3 -31 8 -112 13 -104 6z"/>
<path d="M2835 2740 c17 -4 39 -8 50 -8 16 0 15 2 -5 8 -14 4 -36 8 -50 8 -22
0 -22 -1 5 -8z"/>
<path d="M2025 2715 c-54 -17 -33 -18 30 -1 28 8 41 14 30 14 -11 0 -38 -5
-60 -13z"/>
<path d="M2918 2723 c7 -3 16 -2 19 1 4 3 -2 6 -13 5 -11 0 -14 -3 -6 -6z"/>
<path d="M2958 2713 c7 -3 16 -2 19 1 4 3 -2 6 -13 5 -11 0 -14 -3 -6 -6z"/>
<path d="M2998 2703 c7 -3 16 -2 19 1 4 3 -2 6 -13 5 -11 0 -14 -3 -6 -6z"/>
</g>
</svg>
